# xmcd CD database file
#
# Track frame offsets:
#	150
#	20998
#	44568
#	72166
#	99713
#	116947
#	140421
#	162174
#	181970
#	199057
#	216406
#	241390
#	262089
#	281531
#	303598
#
# Disc length: 4467 seconds
#
# Revision: 2
# Processed by: cddbd v1.4b41PL1 Copyright (c) Steve Scherf et al.
# Submitted via: Feurio! 1.50.2ß - http://www.feurio.com
#
DISCID=f011710f
DTITLE=Soulpusher - Best of
DYEAR=1900
DGENRE=
TTITLE0=Blindfold
TTITLE1=Near
TTITLE2=Connie Lingers
TTITLE3=Flesh Insomnia
TTITLE4=Hunger
TTITLE5=The Other Half
TTITLE6=I Want This
TTITLE7=Love Is Strange
TTITLE8=My Lover´s Eyes
TTITLE9=My Skin Sheds Me
TTITLE10=No More Saturday Nights
TTITLE11=Sensual Knot
TTITLE12=Rubdaddy
TTITLE13=Warsong
TTITLE14=Ymania Sa
EXTD=
EXTT0=
EXTT1=
EXTT2=
EXTT3=
EXTT4=
EXTT5=
EXTT6=
EXTT7=
EXTT8=
EXTT9=
EXTT10=
EXTT11=
EXTT12=
EXTT13=
EXTT14=
PLAYORDER=
